{"title":"Chocolate Stuffed MILFs 3","uid":9039548,"size":721392374,"categoryP":"porn","categoryS":"movies","magnet":"?xt=urn:btih:3aeda28b82fabc7e177feb50045d705d2e722c60&amp;dn=Chocolate+Stuffed+MILFs+3&amp;tr=udp%3A%2F%2Ftracker.openbittorrent.com%3A80&amp;tr=udp%3A%2F%2Fopen.demonii.com%3A1337&amp;tr=udp%3A%2F%2Ftracker.coppersurfer.tk%3A6969&amp;tr=udp%3A%2F%2Fexodus.desync.com%3A6969","seeders":0,"leechers":1,"uploader":null,"files":4,"time":1381589990,"description":" &lt;a href=&quot;http://s7.postimg.org/am2ztqwwr/1212815_20131011_Zv_VBPc.jpg&quot; rel=&quot;nofollow&quot; target=&quot;_NEW&quot;&gt;http://s7.postimg.org/am2ztqwwr/1212815_20131011_Zv_VBPc.jpg&lt;/a&gt;\n\n\nThey're moms and grandmothers. They're wives and divorcees. They're real 50something white women from all walks of life, and they're fulfilling their forbidden fantasies by getting their old fuckholes filled with the biggest, hardest, darkest cocks they've ever experienced. Some of them end up with cream-filled cunts. Some of them are rewarded with cum-glazed faces. Cassidy takes it in her tight ass. They're all taking a wild walk on the dark side... and loving every inch of it! SIX REAL, BLACK-COCK-LOVING WIVES AND GRANDMAS FROM 51 TO 56. Shirley Lily, a 52-year-old mother and grandmother, is the dirtiest-talking divorcee you've ever seen. This big-titted, redhaired newcomer loves referring to her pussy as her cunt! She swallows her stud's big, black cock, sucks his balls and shows off her gaping pussy. Then she gets her face fucked and rides his cock hard before opening her mouth for his sticky load. We don't know how short 'n' stacked divorcee Cassidy Exe got such a big cock into her mouth and pussy. She's only 4'10&quot; tall! But she did, and she even takes it in her ass, getting butt-fucked deep and hard while her DD-cups jiggle all over the place. &quot;Oh, your fucking cock's all the way deep in my fuckin' dirty asshole!&quot; this filthy 50-year-old says before she takes his spunk in her mouth. Misty Luv is a 54-year-old wife, swinger and first-timer who looks a lot like actress Jamie Lee Curtis with her short, blonde hair and sexy face. But we've never seen Jamie Lee like this! In her first DVD scene, Misty sucks a big, black cock while looking into the camera, then gets her tight pussy drilled hard and deep until the stud cums deep. Yep, a creampie! Carrie Romano, a 56-year-old blonde with big tits and pointy nipples, wants a big, black cock, but she has no idea what she's in for: the biggest, thickest black cock she's ever seen. She's astonished, but she takes every inch like a pro, sucking it hard and getting her cunt hammered before he dumps his load on her ass. Margo Sullivan is 51. She helps out her neighbor by giving him a place to hide from his parole officer. He returns the favor by playing with her ass and offering his cock. She accepts the offer and sucks his rod, then gets banged every which way. He cums in her cunt and she eats her own creampie off her fingers. Divorcee Jackie Pierson, 53, looks conservative, and Lucas is shocked when she excuses herself and comes back dressed in slutty lingerie. This divorcee-next-door gets her face and pussy fucked and ends up with a dripping load of cum on her chin.\n\nFormat : AVI\nFormat/Info : Audio Video Interleave\nFile size : 687 MiB\nDuration : 2h 7mn\nOverall bit rate : 751 Kbps\nWriting library : VirtualDub build 32842/release\n\nVideo\nID : 0\nFormat : MPEG-4 Visual\nFormat profile : Advanced Simple@L5\nFormat settings, BVOP : 2\nFormat settings, QPel : No\nFormat settings, GMC : No warppoints\nFormat settings, Matrix : Default (H.263)\nMuxing mode : Packed bitstream\nCodec ID : XVID\nCodec ID/Hint : XviD\nDuration : 2h 7mn\nBit rate : 699 Kbps\nWidth : 600 pixels\nHeight : 338 pixels\nDisplay aspect ratio : 16:9\nFrame rate : 29.970 fps\nColor space : YUV\nChroma subsampling : 4:2:0\nBit depth : 8 bits\nScan type : Progressive\nCompression mode : Lossy\nBits/(Pixel*Frame) : 0.115\nStream size : 640 MiB (93%)\nWriting library : XviD 64\n\nAudio\nID : 1\nFormat : MPEG Audio\nFormat version : Version 2\nFormat profile : Layer 3\nMode : Joint stereo\nMode extension : Intensity Stereo + MS Stereo\nCodec ID : 55\nCodec ID/Hint : MP3\nDuration : 2h 7mn\nBit rate mode : Constant\nBit rate : 40.0 Kbps\nChannel(s) : 2 channels\nSampling rate : 24.0 KHz\nCompression mode : Lossy\nStream size : 36.6 MiB (5%)\nAlignment : Split accross interleaves\nInterleave, duration : 33 ms (1.00 video frame)\nInterleave, preload duration : 500 ms","torrent":{"xt":"urn:btih:3aeda28b82fabc7e177feb50045d705d2e722c60","amp;dn":"Chocolate+Stuffed+MILFs+3","amp;tr":["udp%3A%2F%2Ftracker.openbittorrent.com%3A80","udp%3A%2F%2Fopen.demonii.com%3A1337","udp%3A%2F%2Ftracker.coppersurfer.tk%3A6969","udp%3A%2F%2Fexodus.desync.com%3A6969"],"infoHash":"3aeda28b82fabc7e177feb50045d705d2e722c60","infoHashBuffer":{"type":"Buffer","data":[58,237,162,139,130,250,188,126,23,127,235,80,4,93,112,93,46,114,44,96]},"announce":[],"urlList":[]}}